<svg xmlns="http://www.w3.org/2000/svg" width="1024" height="1212" viewBox="0 0 1024 1212">
  <g id="Group_41545" data-name="Group 41545" transform="translate(9872 -11408)">
    <g id="Chooze_logo_1__adobe_express" data-name="Chooze logo (1)_adobe_express" transform="translate(-9873 11407)">
      <path id="Path_9473" data-name="Path 9473" d="M681,1025H1V1H1025V1025H681M618.387,841.838c8.832-3.426,17.74-6.667,26.482-10.31,26.283-10.952,50.117-25.972,72.655-43.308A319.951,319.951,0,0,0,795.608,701c17.278-28.146,30.492-58.086,38.308-90.125,14.28-58.537,14.485-117.017-2.234-175.3-10.766-37.535-27.359-72.158-50.8-103.315-6.271-8.336-8.57-16.487-7.558-26.782,1.421-14.461-2.345-28.048-13.1-38.4a213.116,213.116,0,0,0-24.614-20.162c-33.118-23.461-66.463-46.6-99.784-69.778a112.008,112.008,0,0,0-14.475-8.823c-5.653-2.768-10.535-.715-13.906,4.955-3.294,5.54-2.613,10.074,2.3,14.159,2.94,2.446,5.946,4.832,9.072,7.034,21.617,15.23,43.345,30.3,64.879,45.652a212.664,212.664,0,0,1,20.6,16.414c4.084,3.756,3.63,8.585.3,13.092-5.381,7.289-11.63,8.515-19.5,3.235-13.674-9.174-27.188-18.587-40.726-27.962-12.165-8.425-24.245-16.971-36.419-25.383a152.753,152.753,0,0,0-13.836-8.928c-6.169-3.342-11.809-1.81-15.859,3.648-3.823,5.152-3.459,9.861,1.334,15.255a23.669,23.669,0,0,0,4.1,3.6q31.888,22.329,63.817,44.6c8.166,5.726,16.418,11.363,24.249,17.525,5.873,4.621,6.849,9.895,3.985,15.38-4.161,7.965-12.7,10.17-20.813,4.634-17.719-12.1-35.155-24.609-52.763-36.872-12.281-8.554-24.591-17.072-37.019-25.41-4.9-3.29-9.351-2.828-13.324.636-6.96,6.069-6.473,13.811,1.6,19.612,13.776,9.9,27.7,19.589,41.6,29.328q38.622,27.078,77.3,54.081c11.984,8.323,24.977,13.92,40,13.417a63.034,63.034,0,0,0,29.848-8.761c5.192-3,8.568-2.185,11.645,2.313a291.384,291.384,0,0,1,38.32,79.184c6.395,20.782,9.734,42.125,11.186,63.816,4.223,63.089-9.911,121.637-43.254,175.411a282.729,282.729,0,0,1-71.849,78.18c-27.491,20.528-57.46,36.235-90.259,45.933q-88.2,26.078-176.018-2.421a290.542,290.542,0,0,1-89.826-47.831c-36.445-28.566-63.9-64.417-83.532-106.12-19.566-41.562-27.851-85.586-26.074-131.505,1.009-26.086,4.693-51.735,12.463-76.705a295.1,295.1,0,0,1,37.87-78.343c5.414-7.978,11.293-15.665,17.315-23.2,4.856-6.075,7.24-6.208,13.413-1.676,4.156,3.052,8.2,6.258,12.208,9.508,21.772,17.676,49.585,20.177,73.7,6.13a187.82,187.82,0,0,0,48.387-40.449,192.1,192.1,0,0,0,39.481-73.26c2.934-10.374,1.872-20.574-4.271-29.715-8.818-13.124-22.062-19.4-36.946-22.476-18.424-3.809-37.1-3.991-55.728-1.938-25.968,2.864-50.711,9.75-72.11,25.446-25.281,18.543-37.594,42.98-32.362,74.847.9,5.468-.707,9.766-4.374,14.122-10.486,12.454-21,24.957-30.483,38.171a312.184,312.184,0,0,0-48.938,105.87C175.6,509.5,178.189,573.971,200.083,637.409c11.766,34.092,29.43,65.008,51.481,93.566a328.058,328.058,0,0,0,81.893,75.277A318.156,318.156,0,0,0,429.469,848.5c63.228,15.828,126.057,13.907,188.918-6.662m-7.62-145.591c4.664-.048,9.329-.042,13.991-.155,16.316-.4,32.637-.676,48.944-1.3,12.543-.483,20.311-8.134,21.99-21.008a21.57,21.57,0,0,0-15.739-24.074,42.078,42.078,0,0,0-12.817-1.189c-17.475.659-34.934,1.691-52.4,2.445-7.352.317-9.259-1.563-9.167-8.946q.372-29.726.974-59.449c.14-7.179,1.854-8.617,9.059-8.619,11.327,0,22.661.088,33.979-.274,8.834-.282,16.175-3.65,20.327-12.093,6.3-12.813-.024-33.282-20.94-33.505q-15.988-.171-31.978-.1c-8.141.036-10.231-1.807-10.1-9.815.277-16.819.755-33.635.992-50.454.162-11.459,2.358-14.051,13.709-13.763,14.473.368,28.935,1.21,43.4,1.832,7.114.306,13.673-.9,18.123-7.216,5.906-8.384,5.281-17.3,1.438-26.124-3.655-8.394-11.117-11.21-19.565-11.308-24.307-.283-48.621-.5-72.928-.315-27.061.208-41.867,16.649-41.682,43.843.335,48.965-.067,97.935-.186,146.9-.052,21.32-.373,42.643-.149,63.96.09,8.614,2.842,16.9,10.552,21.551,6.425,3.878,13.6,7.555,20.864,8.741,9.233,1.507,18.891.411,29.311.436M407.293,567.209c.909-13.288,1.4-26.62,2.819-39.853,2.435-22.676,9.237-43.914,22.758-62.626,3.987-5.518,8.837-10,15.617-11.792,13.908-3.667,22.9.993,30.5,15.673,5.153,9.949,15.938,13.743,27.386,9.633,8.227-2.954,12.869-12.743,10.356-22.913-3.879-15.7-13.046-27.81-26.153-37.1-22.438-15.9-63.667-12.515-86.406,2.768-18.818,12.648-31.951,29.986-42.085,49.72A179.966,179.966,0,0,0,342.4,551.579c-.311,26.885,3.1,53.486,13.05,78.87,5.868,14.977,14.207,28.252,26.469,38.731,17.2,14.7,36.389,25.612,59.662,25.959,36.838.55,62.843-17.414,80.074-49.093a59.77,59.77,0,0,0,5.863-15.291c2.5-11.2-3.565-21.191-13.98-24.287-9.578-2.846-20.435,2.454-24.293,12.64-5.51,14.548-15.87,23.8-29.935,29.54-11.081,4.519-22.439,3.522-28.562-4.421a108.406,108.406,0,0,1-14.657-24.67C409.4,603.211,407.844,585.681,407.293,567.209Z" fill="#0667f4"/>
      <path id="Path_9474" data-name="Path 9474" d="M618,841.941C555.526,862.407,492.7,864.328,429.469,848.5a318.156,318.156,0,0,1-96.012-42.248,328.058,328.058,0,0,1-81.893-75.277c-22.051-28.558-39.715-59.474-51.481-93.566C178.189,573.971,175.6,509.5,192.125,444.548a312.184,312.184,0,0,1,48.938-105.87c9.485-13.214,20-25.717,30.483-38.171,3.667-4.356,5.271-8.654,4.374-14.122-5.232-31.867,7.081-56.3,32.362-74.847,21.4-15.7,46.142-22.582,72.11-25.446,18.627-2.053,37.3-1.871,55.728,1.938,14.884,3.077,28.128,9.352,36.946,22.476,6.143,9.141,7.2,19.341,4.271,29.715a192.1,192.1,0,0,1-39.481,73.26,187.82,187.82,0,0,1-48.387,40.449c-24.114,14.047-51.927,11.546-73.7-6.13-4-3.25-8.052-6.456-12.208-9.508-6.173-4.532-8.557-4.4-13.413,1.676-6.022,7.535-11.9,15.222-17.315,23.2a295.1,295.1,0,0,0-37.87,78.343c-7.77,24.97-11.454,50.619-12.463,76.705-1.777,45.919,6.508,89.943,26.074,131.505,19.633,41.7,47.087,77.554,83.532,106.12a290.542,290.542,0,0,0,89.826,47.831q87.657,28.593,176.018,2.421c32.8-9.7,62.768-25.405,90.259-45.933a282.729,282.729,0,0,0,71.849-78.18c33.343-53.774,47.477-112.322,43.254-175.411-1.452-21.691-4.791-43.034-11.186-63.816a291.384,291.384,0,0,0-38.32-79.184c-3.077-4.5-6.453-5.31-11.645-2.313a63.034,63.034,0,0,1-29.848,8.761c-15.02.5-28.013-5.094-40-13.417q-38.741-26.907-77.3-54.081c-13.892-9.739-27.82-19.428-41.6-29.328-8.072-5.8-8.559-13.543-1.6-19.612,3.973-3.464,8.42-3.926,13.324-.636,12.428,8.338,24.738,16.856,37.019,25.41,17.608,12.263,35.044,24.773,52.763,36.872,8.109,5.536,16.652,3.331,20.813-4.634,2.864-5.485,1.888-10.759-3.985-15.38-7.831-6.162-16.083-11.8-24.249-17.525q-31.875-22.349-63.817-44.6a23.669,23.669,0,0,1-4.1-3.6c-4.793-5.394-5.157-10.1-1.334-15.255,4.05-5.458,9.69-6.99,15.859-3.648a152.753,152.753,0,0,1,13.836,8.928c12.174,8.412,24.254,16.958,36.419,25.383,13.538,9.375,27.052,18.788,40.726,27.962,7.869,5.28,14.118,4.054,19.5-3.235,3.326-4.507,3.78-9.336-.3-13.092a212.664,212.664,0,0,0-20.6-16.414c-21.534-15.347-43.262-30.422-64.879-45.652-3.126-2.2-6.132-4.588-9.072-7.034-4.912-4.085-5.593-8.619-2.3-14.159,3.371-5.67,8.253-7.723,13.906-4.955a112.008,112.008,0,0,1,14.475,8.823c33.321,23.175,66.666,46.317,99.784,69.778a213.116,213.116,0,0,1,24.614,20.162c10.752,10.351,14.518,23.938,13.1,38.4-1.012,10.3,1.287,18.446,7.558,26.782,23.442,31.157,40.035,65.78,50.8,103.315,16.719,58.287,16.514,116.767,2.234,175.3-7.816,32.039-21.03,61.979-38.308,90.125a319.951,319.951,0,0,1-78.084,87.22c-22.538,17.336-46.372,32.356-72.655,43.308C636.127,835.171,627.219,838.412,618,841.941Z" fill="#fdfefe"/>
      <path id="Path_9475" data-name="Path 9475" d="M610.295,696.248c-9.948-.026-19.606,1.07-28.839-.437-7.264-1.186-14.439-4.863-20.864-8.741-7.71-4.654-10.462-12.937-10.552-21.551-.224-21.317.1-42.64.149-63.96.119-48.968.521-97.938.186-146.9-.185-27.194,14.621-43.635,41.682-43.843,24.307-.186,48.621.032,72.928.315,8.448.1,15.91,2.914,19.565,11.308,3.843,8.827,4.468,17.74-1.438,26.124-4.45,6.317-11.009,7.522-18.123,7.216-14.467-.622-28.929-1.464-43.4-1.832-11.351-.288-13.547,2.3-13.709,13.763-.237,16.819-.715,33.635-.992,50.454-.132,8.008,1.958,9.851,10.1,9.815q15.988-.072,31.978.1c20.916.223,27.241,20.692,20.94,33.505-4.152,8.443-11.493,11.811-20.327,12.093-11.318.362-22.652.271-33.979.274-7.2,0-8.919,1.44-9.059,8.619q-.579,29.723-.974,59.449c-.092,7.383,1.815,9.263,9.167,8.946,17.471-.754,34.93-1.786,52.4-2.445a42.078,42.078,0,0,1,12.817,1.189,21.57,21.57,0,0,1,15.739,24.074c-1.679,12.874-9.447,20.525-21.99,21.008-16.307.628-32.628.908-48.944,1.3C620.1,696.205,615.431,696.2,610.295,696.248Z" fill="#fdfeff"/>
      <path id="Path_9476" data-name="Path 9476" d="M407.321,567.662c.523,18.019,2.084,35.549,8.768,51.9a108.406,108.406,0,0,0,14.657,24.67c6.123,7.943,17.481,8.94,28.562,4.421,14.065-5.737,24.425-14.992,29.935-29.54,3.858-10.186,14.715-15.486,24.293-12.64,10.415,3.1,16.482,13.085,13.98,24.287a59.77,59.77,0,0,1-5.863,15.291c-17.231,31.679-43.236,49.643-80.074,49.093-23.273-.347-42.461-11.258-59.662-25.959-12.262-10.479-20.6-23.754-26.469-38.731-9.946-25.384-13.361-51.985-13.05-78.87a179.966,179.966,0,0,1,19.688-80.858c10.134-19.734,23.267-37.072,42.085-49.72,22.739-15.283,63.968-18.669,86.406-2.768,13.107,9.288,22.274,21.395,26.153,37.1,2.513,10.17-2.129,19.959-10.356,22.913-11.448,4.11-22.233.316-27.386-9.633-7.6-14.68-16.593-19.34-30.5-15.673-6.78,1.788-11.63,6.274-15.617,11.792-13.521,18.712-20.323,39.95-22.758,62.626C408.691,540.589,408.2,553.921,407.321,567.662Z" fill="#fdfefe"/>
    </g>
    <g id="choozename_splash_adobe_express" transform="translate(-9873 12431)">
      <path id="Path_9477" data-name="Path 9477" d="M684.146,189H1Q1,95,1,1H1025V189H684.146M123.367,29.039s.181-.036-.171-.613a7.576,7.576,0,0,1-1.926-.811c-.243-.044-.486-.088-1.254-.748-1.342-.448-2.684-.9-4.925-1.859C82.571,13.661,45.927,22.5,25.66,46.925c-12.354,14.89-17.44,32-17.7,50.333-.537,37.723,20.749,75.574,73.722,78.492,22.941,1.264,43.58-3.894,61.078-19.285,3.506-2.285,2.936-4.254-.772-5.846,0,0,.166-.162-.089-.955A71.461,71.461,0,0,1,136,143.645a4.317,4.317,0,0,1-1.5-1.481,47.13,47.13,0,0,1-3.6-3.6l-5.015-4.8a45.634,45.634,0,0,1-4.629,4.408,3.857,3.857,0,0,1-1.617,1.131,4.356,4.356,0,0,0-.789,1.051s-.063-.109-.978-.009A32.168,32.168,0,0,1,113.214,143c-19.869,9.192-39.4,8.787-57.372-3.275-14.239-9.556-18.519-23.8-19.448-38.983-1.761-28.786,16.96-50.207,47.129-53.02,6.94-.647,14.167,1.14,22.011,2.348,2.979,1.222,5.957,2.443,9.309,4.2a14.112,14.112,0,0,1,1.745,1.127c1.9,1.3,3.791,2.6,5.732,4.141,0,0,.278-.013.8.646.835.187,2.143.774,2.436.5,6.123-5.713,12.132-11.523,18.588-17.722-3.137-2.381-5.6-4.25-8.491-6.776a14.24,14.24,0,0,1-2.49-1.886,39.259,39.259,0,0,1-3.281-2.175s-.227.027-.824-.528c-1.248-.6-2.5-1.207-3.8-1.712,0,0,.116.036-.377-.559a5.236,5.236,0,0,0-1.512-.286M894.5,172.138s.052,0,1.156.2H1001.2V144.261H917.332v-33.4h80.637V84.16h-80.43V50.048h83.7V22.75c-35.278,0-70.009-.085-104.736.169-2.662.019-5.3,2.437-8.3,4.626q-.028,30.956-.056,61.913c-.013,25.745-.076,51.49.119,77.233.014,1.83,1.979,3.649,3.808,5.658.794-.077,1.589-.155,2.429-.211M555.092,62.193c-9.954,22.913-10.666,46.03-1.74,69.3,10.157,26.477,34.934,42.886,66.97,44.5,32.813,1.65,59.462-12.4,72.828-38.485a83.453,83.453,0,0,0,8-54.883c-4.654-24.45-16.82-44.943-43.281-55.955-40.365-16.8-82.139-2.409-102.778,35.53m-45.969,56.132c4.516-19.941,3.117-39.459-6.423-58.074C489.69,34.867,467.392,20.934,435.846,20.3c-31.743-.634-55.464,11.936-69.316,37.42-13.348,24.555-14,50.057-3.365,75.6,20.947,50.323,87.74,51.237,117.92,28.862,15.2-11.268,23.612-25.927,28.038-43.862M195.9,172.377H212.34V112.652H286.3V172H314.19V23.8H285.916V85.46H212.062V23.845H183.954V172.377H195.9m645.586-26.869H771.974c1.54-2.255,2.362-3.5,3.233-4.724,23.372-32.691,46.54-65.5,70.3-97.968,4.818-6.583,4.555-12.868,3.716-19.711H733.816V49.889h73.5c-1.781,2.663-2.921,4.478-4.177,6.228-22.265,31.043-44.269,62.24-67.016,93-5.646,7.635-4.264,15.057-4.185,22.821H849.472v-26.16c-2.4-.1-4.487-.179-7.984-.271m-660.712-8.3v28.612l.918-.027V30.6l-.918,0Z" fill="#0868f4"/>
      <path id="Path_9478" data-name="Path 9478" d="M388.941,57.677c20.389-37.5,62.163-51.891,102.528-35.1C517.93,33.594,530.1,54.087,534.75,78.537a83.453,83.453,0,0,1-8,54.883c-13.365,26.081-40.015,40.135-72.828,38.485-32.036-1.61-56.813-18.019-66.97-44.5-8.926-23.267-8.214-46.384,1.99-69.732m49.779,84.647c29.415,9.479,55.552-.958,65.086-26.451,6.015-16.08,5.553-32.226-1.972-47.978C493.859,51.2,477.817,41.7,458.179,41.9c-19.877.208-36.22,10.33-43.671,27.1-6.869,15.456-7.021,31.167-1.382,46.839C417.278,127.379,424.874,136.68,438.72,142.324Z" transform="translate(166.401 4.081)" fill="#f9fcfc"/>
      <path id="Path_9479" data-name="Path 9479" d="M400.905,114.649c-4.309,17.4-12.722,32.064-27.921,43.332-30.179,22.375-96.972,21.46-117.92-28.862-10.631-25.542-9.983-51.044,3.365-75.6C272.281,28.035,296,15.466,327.745,16.1c31.546.63,53.843,14.562,66.853,39.946,9.54,18.615,10.939,38.133,6.306,58.6M278.372,78.339c-3.05,13.4-2.536,26.625,2.822,39.534,6.967,16.784,22.3,27.05,40.772,27.439,23.945.505,38.78-7.24,47.287-25.406,7.566-16.156,7.818-32.726,1.133-49.157-8.869-21.8-29.46-32.368-54.856-27.823C294.526,46.684,283.943,59.912,278.372,78.339Z" transform="translate(108.101 4.205)" fill="#fafcfc"/>
      <path id="Path_9480" data-name="Path 9480" d="M618.126,21.919c2.651-1.3,5.29-3.721,7.952-3.741,34.727-.254,69.458-.169,104.736-.169v27.3h-83.7V79.42h80.43v26.7H646.906v33.4h83.866v28.072c-34.907,0-70.223,0-106.29-.628-1.719-4.5-3.509-8.359-3.528-12.229-.206-41.105-.069-82.212-.246-123.317-.013-3.169-1.683-6.333-2.582-9.5m4.617,2.838.344.659c-.017-.256-.036-.513-.344-.659M719.3,21.2h0m-93.483,0Z" transform="translate(270.426 4.74)" fill="#fafcfd"/>
      <path id="Path_9481" data-name="Path 9481" d="M139.46,167.4H128.21V18.872h28.108V80.487h73.855V18.831h28.274V167.025H230.555V107.678H156.6V167.4Z" transform="translate(55.744 4.973)" fill="#fbfdfe"/>
      <path id="Path_9482" data-name="Path 9482" d="M619.546,140.693c2.793.087,4.884.17,7.28.266v26.16H509.294c-.079-7.764-1.461-15.186,4.185-22.821,22.747-30.762,44.751-61.959,67.016-93,1.256-1.75,2.4-3.565,4.177-6.228h-73.5V18.283H626.577c.838,6.844,1.1,13.128-3.716,19.711-23.759,32.468-46.927,65.277-70.3,97.968-.871,1.22-1.693,2.47-3.233,4.724C573.167,140.687,596,140.687,619.546,140.693Z" transform="translate(222.646 4.821)" fill="#fbfdfd"/>
      <path id="Path_9483" data-name="Path 9483" d="M114.039,50.477c-.488-.016-.926-.157-1.562-1.141-.942-2.408-1.636-4.095-2.416-5.993l-7.394,1.973c-7.095-.667-14.322-2.454-21.262-1.807-30.169,2.813-48.89,24.234-47.129,53.02.929,15.184,5.208,29.426,19.448,38.982,17.976,12.063,37.5,12.467,58.455,3.218a31.245,31.245,0,0,1,4.868.175,11.994,11.994,0,0,0,1.7.528l.1-.366a3.855,3.855,0,0,1-2.047-.771c-.05-1.056-.088-1.66-.127-2.264,0,0,.063.109.348-.018a2.275,2.275,0,0,0,1.237-1.046,2.573,2.573,0,0,1,1.529-.922,64.079,64.079,0,0,1,8.7,2.432,28.082,28.082,0,0,0,4.21,2.233,2.461,2.461,0,0,1,1.177,1.45c-1.473,5.723,2.912,5.383,6.159,6.081a.838.838,0,0,0-.2.491c-.059,2.178-.083,4.029-.107,5.878-16.585,15.03-37.224,20.188-60.165,18.924C26.591,168.619,5.306,130.767,5.842,93.044,6.1,74.71,11.189,57.6,23.543,42.712,43.81,18.284,80.453,9.447,113.3,21.372a38.87,38.87,0,0,1,1.031,5.292l4.089-3.393a3.237,3.237,0,0,1,1.261.554,4.5,4.5,0,0,0,1.746.965s-.181.036.089.2c.758.349,1.247.532,1.736.714,0,0-.116-.036-.036.375a21.3,21.3,0,0,0,4.317,1.856s.227-.027.053.461a20.362,20.362,0,0,0,.355,3.663l3.518-1.38a5.1,5.1,0,0,1,2.013,1.956,64.148,64.148,0,0,1-6.72,6.462c4.216,7.9,4.222,7.906-3.984,14.728a22.528,22.528,0,0,1-2.287,1.483s-.278.013-.265-.588C119.326,51.347,120.609,45.637,114.039,50.477Z" transform="translate(2.118 4.213)" fill="#fafcfc"/>
      <path id="Path_9484" data-name="Path 9484" d="M618.082,21.41c1.073,2.724,2.743,5.887,2.756,9.057.177,41.105.04,82.212.246,123.317.019,3.87,1.809,7.734,2.976,12.133.2.532.148.528-.263.379a14.745,14.745,0,0,0-2.79.175c-1.057-1.824-3.022-3.642-3.036-5.472-.2-25.743-.132-51.488-.119-77.233C617.86,63.127,617.887,42.49,618.082,21.41Z" transform="translate(270.296 5.692)" fill="#fefef5"/>
      <path id="Path_9485" data-name="Path 9485" d="M126,130.109V24.149l.918,0V159.333l-.918.027Z" transform="translate(54.776 6.456)" fill="#0068ff"/>
      <path id="Path_9486" data-name="Path 9486" d="M85.729,51.963a8.113,8.113,0,0,1,2.028-1.813c8.206-6.822,8.2-6.827,3.984-14.728,2.367-2.06,4.514-3.929,6.933-6.133a73.07,73.07,0,0,1,8.338,5.783c-6.456,6.2-12.465,12.01-18.588,17.722C88.132,53.067,86.824,52.479,85.729,51.963Z" transform="translate(37.129 7.89)" fill="#eff7f7"/>
      <path id="Path_9487" data-name="Path 9487" d="M93.49,111.339c-2.627-.648-5.254-1.3-8.192-2.164a25.927,25.927,0,0,1,3.651-4.365,54.028,54.028,0,0,1,5.075,5.315A2.744,2.744,0,0,1,93.49,111.339Z" transform="translate(36.94 28.954)" fill="#dbecf5"/>
      <path id="Path_9488" data-name="Path 9488" d="M73.423,39.646A44.121,44.121,0,0,1,80.442,37.4c.78,1.9,1.474,3.585,2.23,5.726A62.141,62.141,0,0,1,73.423,39.646Z" transform="translate(31.736 10.153)" fill="#eff7f7"/>
      <path id="Path_9489" data-name="Path 9489" d="M81.22,43.713c6.354-5.192,5.071.518,5.938,3.77A27.208,27.208,0,0,1,81.22,43.713Z" transform="translate(35.152 11.33)" fill="#eff7f7"/>
      <path id="Path_9490" data-name="Path 9490" d="M100.968,118.722c-3.119-.3-7.5.038-5.949-5.364A37.142,37.142,0,0,1,100.968,118.722Z" transform="translate(41.058 31.338)" fill="#ecf6f8"/>
      <path id="Path_9491" data-name="Path 9491" d="M85.278,21.758a19.628,19.628,0,0,1-3.826,3.7,46.618,46.618,0,0,1-.581-5.035A12.7,12.7,0,0,1,85.278,21.758Z" transform="translate(34.999 5.418)" fill="#eff7f7"/>
      <path id="Path_9492" data-name="Path 9492" d="M99.358,123.96a18.288,18.288,0,0,1-.258-5.772C102.752,119.526,103.321,121.494,99.358,123.96Z" transform="translate(42.944 32.685)" fill="#ecf6f8"/>
      <path id="Path_9493" data-name="Path 9493" d="M94.146,27.681a12.81,12.81,0,0,1-3.309,1.678,17.906,17.906,0,0,1-.326-3.565A9.279,9.279,0,0,1,94.146,27.681Z" transform="translate(39.223 6.916)" fill="#eff7f7"/>
      <path id="Path_9494" data-name="Path 9494" d="M91.462,25.5a11.232,11.232,0,0,1-3.99-1.628A11.234,11.234,0,0,1,91.462,25.5Z" transform="translate(37.892 6.378)" fill="#eff7f7"/>
      <path id="Path_9495" data-name="Path 9495" d="M91.118,110.5a1.466,1.466,0,0,1,.579-1.262,17.685,17.685,0,0,1,3.476,3.115A11.605,11.605,0,0,1,91.118,110.5Z" transform="translate(39.49 30.189)" fill="#ecf6f8"/>
      <path id="Path_9496" data-name="Path 9496" d="M84.265,112.577c-1.185-.023-2.37-.046-4.146-.125a10.232,10.232,0,0,1,3.544-2.535,3.2,3.2,0,0,1,.586,2.213C84.263,112.581,84.265,112.577,84.265,112.577Z" transform="translate(34.67 30.378)" fill="#dbecf5"/>
      <path id="Path_9497" data-name="Path 9497" d="M620.306,134.97a5.734,5.734,0,0,1,2.382-.28A5.7,5.7,0,0,1,620.306,134.97Z" transform="translate(271.381 37.286)" fill="#fafcfd"/>
      <path id="Path_9498" data-name="Path 9498" d="M86.479,22.775c-.27.181-.675,0-1.289-.46C85.394,22.236,85.849,22.361,86.479,22.775Z" transform="translate(36.892 5.939)" fill="#eff7f7"/>
      <path id="Path_9499" data-name="Path 9499" d="M87.766,23.5c-.242.114-.731-.068-1.508-.5C86.486,22.9,87,23.049,87.766,23.5Z" transform="translate(37.36 6.127)" fill="#eff7f7"/>
      <path id="Path_9500" data-name="Path 9500" d="M84.032,109.093c.167.343-.151.65-.928.951C83.063,109.809,83.365,109.482,84.032,109.093Z" transform="translate(35.976 30.148)" fill="#dbecf5"/>
      <path id="Path_9501" data-name="Path 9501" d="M429.58,136.374c-13.351-5.423-20.947-14.724-25.1-26.265-5.639-15.672-5.487-31.382,1.382-46.839,7.451-16.766,23.794-26.888,43.671-27.1,19.639-.206,35.68,9.3,43.655,25.992,7.525,15.752,7.986,31.9,1.972,47.978C485.627,135.637,459.491,146.074,429.58,136.374Z" transform="translate(175.046 9.81)" fill="#0868f3"/>
      <path id="Path_9502" data-name="Path 9502" d="M269.7,72.185c5.461-17.9,16.043-31.13,37.047-34.888,25.4-4.544,45.987,6.024,54.856,27.823,6.685,16.43,6.433,33-1.133,49.157-8.507,18.166-23.342,25.911-47.287,25.406-18.468-.389-33.8-10.655-40.772-27.439C267.05,99.334,266.535,86.113,269.7,72.185Z" transform="translate(116.887 9.834)" fill="#0868f3"/>
      <path id="Path_9503" data-name="Path 9503" d="M621.438,23.239a1.212,1.212,0,0,1,.2.714A1.212,1.212,0,0,1,621.438,23.239Z" transform="translate(271.875 6.203)" fill="#fefef5"/>
      <path id="Path_9504" data-name="Path 9504" d="M688.5,20.494Z" transform="translate(301.258 5.436)" fill="#fefef5"/>
      <path id="Path_9505" data-name="Path 9505" d="M623.5,20.493Z" transform="translate(272.775 5.436)" fill="#fefef5"/>
      <path id="Path_9506" data-name="Path 9506" d="M83,112q1.014.161,2.033.318l-.1.366a11.994,11.994,0,0,1-1.7-.528C83,112,83,112,83,112Z" transform="translate(35.932 30.96)" fill="#dbecf5"/>
    </g>
  </g>
</svg>
